<svg xmlns="http://www.w3.org/2000/svg" id="prefix__Group_3624" width="57.73" height="50.74" data-name="Group 3624" viewBox="0 0 57.73 50.74">
    <defs>
        <style>
            .prefix__cls-1{fill:none}.prefix__cls-2{fill:#264a9f}
        </style>
    </defs>
    <path id="prefix__Path_2332" d="M-897.634 5156.3h-23.187a1.476 1.476 0 0 0-1.416 1.042l-2.338 7.36h.073a.865.865 0 0 1 .128-.009h30.023c.1 0 .2 0 .3.006l.177.015-2.338-7.364a1.488 1.488 0 0 0-.31-.544 1.475 1.475 0 0 0-1.112-.506z" class="prefix__cls-1" data-name="Path 2332" transform="translate(938.091 -5136.415)"/>
    <path id="prefix__Path_2333" d="M-899.748 5178.826h-21.847a9.508 9.508 0 0 1-7.09-3.208 3.518 3.518 0 0 0-.36 1.541v6.521a.87.87 0 0 0 .805.861h35.095a.872.872 0 0 0 .845-.862v-6.519a3.5 3.5 0 0 0-.36-1.541 9.51 9.51 0 0 1-7.088 3.207z" class="prefix__cls-1" data-name="Path 2333" transform="translate(939.539 -5142.674)"/>
    <path id="prefix__Path_2334" d="M-925.931 5192.842v2.034a.383.383 0 0 0 .382.381h2.58a.383.383 0 0 0 .381-.381v-2.034z" class="prefix__cls-1" data-name="Path 2334" transform="translate(938.53 -5148.255)"/>
    <path id="prefix__Path_2335" d="M-893.975 5172.792l-.486-.062H-924.607l-.5.065a3.581 3.581 0 0 0-.376.1 6.752 6.752 0 0 0 2.9 1.917 6.766 6.766 0 0 0 2.142.354h21.841a6.747 6.747 0 0 0 4.534-1.76 6.731 6.731 0 0 0 .5-.511 3.539 3.539 0 0 0-.381-.1z" class="prefix__cls-1" data-name="Path 2335" transform="translate(938.384 -5141.737)"/>
    <path id="prefix__Rectangle_2504" d="M0 0H1.722V0.507H0z" class="prefix__cls-1" data-name="Rectangle 2504" transform="translate(8.513 28.847)"/>
    <path id="prefix__Rectangle_2505" d="M0 0H1.721V0.506H0z" class="prefix__cls-1" data-name="Rectangle 2505" transform="translate(47.517 28.842)"/>
    <path id="prefix__Path_2336" d="M-882.755 5192.842v2.034a.376.376 0 0 0 .03.148.383.383 0 0 0 .352.233h2.579a.384.384 0 0 0 .382-.382v-2.034z" class="prefix__cls-1" data-name="Path 2336" transform="translate(924.541 -5148.255)"/>
    <path id="prefix__Path_2337" d="M-892.193 5161.238h-2.442a2.352 2.352 0 0 0-.744.12l-1.948-6.139a4.161 4.161 0 0 0-3.993-2.942h-23.217a4.161 4.161 0 0 0-3.994 2.94l-1.947 6.133a2.406 2.406 0 0 0-.717-.112h-2.446A2.368 2.368 0 0 0-936 5163.6v1.228a2.37 2.37 0 0 0 2.359 2.357h.111a6.212 6.212 0 0 0-.491 2.413v6.523a3.57 3.57 0 0 0 2.106 3.264v2.354a3.113 3.113 0 0 0 3.1 3.1h2.582a3.115 3.115 0 0 0 3.1-3.1v-2.039h20.406v2.033a3.112 3.112 0 0 0 3.1 3.1h2.581a3.113 3.113 0 0 0 3.1-3.1v-2.35a3.573 3.573 0 0 0 2.107-3.264v-6.519a6.218 6.218 0 0 0-.489-2.413h.134a2.369 2.369 0 0 0 2.358-2.36v-1.227a2.369 2.369 0 0 0-2.357-2.362zm-34.038 20.876h-2.58a.382.382 0 0 1-.382-.381v-2.033h3.344v2.034a.383.383 0 0 1-.381.38zm28.759-15.332a6.747 6.747 0 0 1-4.534 1.76h-21.843a6.753 6.753 0 0 1-2.142-.355 6.751 6.751 0 0 1-2.9-1.916 3.581 3.581 0 0 1 .376-.1l.5-.066H-897.869l.486.062h.035a3.325 3.325 0 0 1 .381.1 6.823 6.823 0 0 1-.504.515zm-2.447-10.743l2.338 7.364-.177-.015c-.1-.006-.2-.006-.3-.006h-30.013a.865.865 0 0 0-.128.009h-.073l2.338-7.36a1.476 1.476 0 0 1 1.416-1.042h23.187a1.475 1.475 0 0 1 1.107.5 1.488 1.488 0 0 1 .306.55zm5.367 13.556v6.519a.872.872 0 0 1-.845.862h-35.095a.87.87 0 0 1-.805-.861v-6.515a3.522 3.522 0 0 1 .36-1.541 9.508 9.508 0 0 0 7.09 3.208H-902a9.51 9.51 0 0 0 7.09-3.208 3.5 3.5 0 0 1 .359 1.541zm-38.728-5.13v-.506h1.722v.507zm36.234 17.649h-2.579a.383.383 0 0 1-.351-.233.374.374 0 0 1-.03-.148v-2.033h3.343v2.034a.384.384 0 0 1-.382.38zm4.491-18.161v.506h-1.72v-.506z" class="prefix__cls-2" data-name="Path 2337" transform="translate(941.792 -5135.111)"/>
    <path id="prefix__Path_2338" d="M-915.634 5126.919l-.073-.035-28.766 13.848-.1.047v35.663a1.184 1.184 0 0 0 1.183 1.183 1.184 1.184 0 0 0 1.183-1.183v-34.173l26.5-12.755 26.5 12.759v34.167a1.184 1.184 0 0 0 1.183 1.183 1.184 1.184 0 0 0 1.183-1.183v-35.656z" class="prefix__cls-2" data-name="Path 2338" transform="translate(944.569 -5126.884)"/>
</svg>
