<svg xmlns="http://www.w3.org/2000/svg" width="54.398" height="65.803" viewBox="0 0 54.398 65.803">
    <defs>
        <style>
            .prefix__cls-1{fill:#264a9f;stroke:transparent;stroke-miterlimit:10}
        </style>
    </defs>
    <g id="prefix__Group_1497" data-name="Group 1497" transform="translate(.507 .722)">
        <path id="prefix__Path_977" d="M1141.045 551.794c-11.826-1.4-17.513-2.876-26.239-12l-.22-.229-.219.229c-8.744 9.151-14.4 10.625-26.162 12l-.271.034.4 24.231c.313 14.942 13.078 22.012 26.124 27.974l.125.059.127-.059c13.088-5.988 25.889-13.08 26.124-27.974l.477-23.956v-.275zm-4.154 24.255c-.229 12.127-11.377 18.754-22.3 23.628-10.922-4.882-22.067-11.513-22.219-23.628l-.4-20.663c10.016-1.353 16.809-4.39 22.615-10.105 5.877 5.719 12.7 8.754 22.7 10.105z" class="prefix__cls-1" data-name="Path 977" transform="translate(-1087.934 -539.561)"/>
        <path id="prefix__Path_978" d="M1099.994 557.578l-.872-.874a2.022 2.022 0 0 0-2.859 2.859l8.522 8.52 13.043-13.046a2.022 2.022 0 0 0-2.859-2.859l-2.342 2.342-7.843 7.844z" class="prefix__cls-1" data-name="Path 978" transform="translate(-1080.026 -527.269)"/>
    </g>
</svg>
