<svg xmlns="http://www.w3.org/2000/svg" width="83" height="83" viewBox="0 0 83 83">
    <defs>
        <radialGradient id="prefix__radial-gradient" cx=".5" cy=".5" r=".5" gradientUnits="objectBoundingBox">
            <stop offset="0" stop-color="#92dee2"/>
            <stop offset=".82" stop-color="#7dcee3"/>
            <stop offset="1" stop-color="#50a4eb"/>
        </radialGradient>
        <linearGradient id="prefix__linear-gradient" x1="1.539" x2=".5" y1="1.336" y2=".5" gradientUnits="objectBoundingBox">
            <stop offset="0" stop-color="#e5e6eb"/>
            <stop offset="1" stop-color="#eff0f3"/>
        </linearGradient>
        <clipPath id="prefix__clip-path">
            <path id="prefix__Path_10588" fill="#ecfdff" stroke="#000" stroke-linecap="round" stroke-linejoin="round" stroke-width="0.75px" d="M41.5 0A41.5 41.5 0 1 1 0 41.5 41.5 41.5 0 0 1 41.5 0z" data-name="Path 10588" transform="translate(-2471 15028)"/>
        </clipPath>
        <style>
            .prefix__cls-5{stroke:#000;fill:#fff}.prefix__cls-9{fill:#263238}
        </style>
    </defs>
    <g id="prefix__Group_12440" data-name="Group 12440" transform="translate(-1334 -479)">
        <g id="prefix__Group_12430" data-name="Group 12430">
            <path id="prefix__Path_10474" fill="url(#prefix__linear-gradient)" d="M41.5 0A41.5 41.5 0 1 1 0 41.5 41.5 41.5 0 0 1 41.5 0z" data-name="Path 10474" transform="translate(1334 479)"/>
            <path id="prefix__Path_10475" fill="url(#prefix__radial-gradient)" d="M41.5 83A41.5 41.5 0 1 0 0 41.5 41.5 41.5 0 0 0 41.5 83z" data-name="Path 10475" opacity="0.56" transform="translate(1334 479)"/>
        </g>
        <g id="prefix__Mask_Group_174" clip-path="url(#prefix__clip-path)" data-name="Mask Group 174" transform="translate(3805 -14549)">
            <g id="prefix__Group_12299" data-name="Group 12299">
                <g id="prefix__Group_12297" data-name="Group 12297" transform="translate(487.637 -35)">
                    <g id="prefix__Group_12291" data-name="Group 12291" transform="translate(-2939.757 15115.66)">
                        <path id="prefix__Path_10580" d="M90.926 190.777v11.786s-3.532 5.465-12.01 6.935l22.607 10.121 22.69-10.121s-11.859-3.261-12.647-6.935v-11.786" class="prefix__cls-5" data-name="Path 10580" transform="translate(-79.916 -191.179)"/>
                        <path id="prefix__Path_10581" fill="#a8a8a8" d="M97.031 190.782s3.047 6.048 7.976 8.857a8.165 8.165 0 0 0 10.637-2.079 12.686 12.686 0 0 0 2.134-7.694s-3.947 5.2-9.831 5.442-10.916-4.526-10.916-4.526z" data-name="Path 10581" transform="translate(-85.794 -189.867)" style="mix-blend-mode:multiply;isolation:isolate" opacity="0.38"/>
                    </g>
                    <g id="prefix__Group_12296" data-name="Group 12296" transform="translate(-3141.245 14950.294)">
                        <g id="prefix__Group_12292" data-name="Group 12292" transform="translate(186.108 165.549)">
                            <path id="prefix__Path_10582" fill="#263238" stroke="#1a1a1a" stroke-linecap="round" stroke-linejoin="round" d="M186.108 240.939c0-14.259 16.488-22.6 16.488-22.6l20.783 8.627 21.855-8.627s16.488 8.341 16.488 22.6z" data-name="Path 10582" transform="translate(-187.108 -201.542)"/>
                            <path id="prefix__Path_10583" fill="#a8a8a8" d="M229.072 191.328s2.96 5.876 7.748 8.6a7.931 7.931 0 0 0 10.334-2.019 12.321 12.321 0 0 0 2.074-7.475s-3.835 5.049-9.552 5.287-10.604-4.393-10.604-4.393z" data-name="Path 10583" transform="translate(-201.666 -190.439)" style="mix-blend-mode:multiply;isolation:isolate" opacity="0.07"/>
                        </g>
                        <g id="prefix__Group_12295" data-name="Group 12295" transform="translate(203.787 121.706)">
                            <g id="prefix__Group_12293" data-name="Group 12293" transform="translate(33 25.822)">
                                <path id="prefix__Path_10584" d="M214.827 163.631s1.541-2.229 3.371-1.148 1.247 5.071 0 7.067-3.26 2.982-4.374 1.449" class="prefix__cls-5" data-name="Path 10584" transform="translate(-213.823 -162.187)"/>
                            </g>
                            <g id="prefix__Group_12294" data-name="Group 12294" transform="translate(0 25.822)">
                                <path id="prefix__Path_10585" d="M218.358 163.631s-1.541-2.229-3.371-1.148-1.247 5.071 0 7.067 3.26 2.981 4.374 1.449" class="prefix__cls-5" data-name="Path 10585" transform="translate(-213.823 -162.187)"/>
                            </g>
                            <path id="prefix__Path_10586" d="M250.529 146.827s1.83 27.24-14.638 27.24-15.146-27.24-15.146-27.24-.8-16.2 15.7-16.2c15.355 0 14.084 16.2 14.084 16.2z" class="prefix__cls-5" data-name="Path 10586" transform="translate(-216.321 -124.936)"/>
                            <path id="prefix__Path_10587" d="M250.956 135.046a6.525 6.525 0 0 0-3.859-5.956l-2.721-1.441c-1.274-3.2-3.954-6.083-9.518-5.938a5.279 5.279 0 0 0-1.514.272c-1.553.512-4.711 1.934-5.435 5.136l-3.721 1.971a6.525 6.525 0 0 0-3.859 5.956v9.715c-.025.691-.027 1.371 0 2.023v.014a15.526 15.526 0 0 0 .169 1.784s3.361-6.744 2.726-10.935a5.864 5.864 0 0 1 .831-4.218 8.029 8.029 0 0 1 .7-.887 11.838 11.838 0 0 1 3.52-2.651c.784 2.27 2.956 5.5 8.965 6.848a27.474 27.474 0 0 1-6.166-5.768c1.93 1.837 6.01 4.262 14.327 4.835a20.073 20.073 0 0 0-.152-4.88 11.234 11.234 0 0 1 1.7 1.512l.024.026a5.655 5.655 0 0 1 1.241 5.026c-1.12 5.04 2.185 11.09 2.185 11.09a18.931 18.931 0 0 0 .2-2.918c.018.83.006 1.389 0 1.522z" class="prefix__cls-9" data-name="Path 10587" transform="translate(-216.172 -121.706)"/>
                        </g>
                    </g>
                </g>
                <g id="prefix__Group_12298" data-name="Group 12298" transform="translate(61.939 17.079)">
                    <path id="prefix__Path_10566" d="M300.711 117.436a7.918 7.918 0 0 0-6.452-2.894c-2.594.051-4.821.848-5.987 2.687a5.186 5.186 0 0 1-1.118-.176 10.772 10.772 0 0 1-4.772-3.646c-1.356-1.777-2-4.95-2.233-7.221-.664 2.529-.64 9.366 1.552 12.808 2.226 3.5 4.749 6.648 9.55 7.556a14.408 14.408 0 0 0 12.064-3.33 19.838 19.838 0 0 0 5.895-12.918c.047-.57.007-3.7-.747-4.2-.246-.164-.4 2.48-.5 2.958a14 14 0 0 1-2.354 4.667 15.681 15.681 0 0 1-4.898 3.709z" class="prefix__cls-9" data-name="Path 10566" transform="translate(-2786.761 14944.095)"/>
                    <path id="prefix__Path_10567" fill="#fff" d="M299.914 127.71a25.787 25.787 0 0 1-3.243 1.228 7.143 7.143 0 0 0 3.757 1c.516-.013 2.52-.338 2.809-1.116.029-.082-2.843-.798-3.323-1.112z" data-name="Path 10567" transform="translate(-2792.526 14932.935)"/>
                </g>
            </g>
        </g>
    </g>
</svg>
