<svg xmlns="http://www.w3.org/2000/svg" xmlns:xlink="http://www.w3.org/1999/xlink" width="32" height="32" viewBox="0 0 32 32"><defs><linearGradient id="a"><stop offset="0" stop-color="#000092"/><stop offset="1" stop-color="#ff00f3"/></linearGradient><linearGradient id="b" x1="3.998" x2="26" y1="16.001" y2="16.001" gradientUnits="userSpaceOnUse" xlink:href="#a"/></defs><path fill="url(#b)" d="M 24.484375 0 L 24.484375 0.001953125 A 0.50005 0.50005 0 0 0 24.019531 0.37109375 L 23.908203 0.79101562 C 23.791308 0.80101562 23.675968 0.8149375 23.560547 0.8359375 L 23.34375 0.4609375 A 0.50005 0.50005 0 0 0 22.660156 0.27734375 L 21.482422 0.95898438 A 0.50005 0.50005 0 0 0 21.298828 1.6425781 L 21.515625 2.0175781 C 21.439595 2.1075781 21.369533 2.200175 21.302734 2.296875 L 20.882812 2.1835938 A 0.50005 0.50005 0 0 0 20.271484 2.5371094 L 19.917969 3.8515625 A 0.50005 0.50005 0 0 0 20.271484 4.4648438 L 20.691406 4.5761719 C 20.700606 4.6937719 20.715498 4.8096813 20.736328 4.9257812 L 20.361328 5.1425781 A 0.50005 0.50005 0 0 0 20.179688 5.8261719 L 20.859375 7.0039062 A 0.50005 0.50005 0 0 0 21.542969 7.1875 L 21.916016 6.9707031 C 22.005916 7.0467031 22.098283 7.1184469 22.195312 7.1855469 L 22.083984 7.6035156 A 0.50005 0.50005 0 0 0 22.4375 8.2167969 L 23.751953 8.5683594 A 0.50005 0.50005 0 0 0 24.363281 8.2148438 L 24.474609 7.7949219 C 24.592151 7.7849219 24.708171 7.7690469 24.824219 7.7480469 L 25.041016 8.1230469 A 0.50005 0.50005 0 0 0 25.722656 8.3066406 L 26.902344 7.6269531 A 0.50005 0.50005 0 0 0 27.083984 6.9433594 L 26.869141 6.5683594 C 26.945161 6.4783594 27.015234 6.3858625 27.082031 6.2890625 L 27.5 6.4023438 A 0.50005 0.50005 0 0 0 28.113281 6.0488281 L 28.464844 4.734375 A 0.50005 0.50005 0 0 0 28.111328 4.1210938 L 27.691406 4.0097656 C 27.682206 3.8921656 27.667284 3.7762562 27.646484 3.6601562 L 28.021484 3.4433594 A 0.50005 0.50005 0 0 0 28.205078 2.7617188 L 27.525391 1.5820312 A 0.50005 0.50005 0 0 0 26.841797 1.3984375 L 26.466797 1.6152344 C 26.377197 1.5392344 26.284177 1.4691437 26.1875 1.4023438 L 26.300781 0.98242188 A 0.50005 0.50005 0 0 0 25.947266 0.37109375 L 24.632812 0.017578125 A 0.50005 0.50005 0 0 0 24.484375 0 z M 24.857422 1.1132812 L 25.205078 1.2070312 L 25.138672 1.4589844 A 0.50005 0.50005 0 0 0 25.386719 2.0292969 C 25.641328 2.1638969 25.872402 2.3415344 26.068359 2.5527344 A 0.50005 0.50005 0 0 0 26.685547 2.6445312 L 26.908203 2.515625 L 27.089844 2.828125 L 26.865234 2.9570312 A 0.50005 0.50005 0 0 0 26.638672 3.5351562 C 26.722632 3.8108562 26.757842 4.0987187 26.746094 4.3867188 A 0.50005 0.50005 0 0 0 27.117188 4.890625 L 27.369141 4.9589844 L 27.275391 5.3066406 L 27.025391 5.2402344 A 0.50005 0.50005 0 0 0 26.453125 5.4902344 C 26.31863 5.7450344 26.142654 5.975775 25.931641 6.171875 A 0.50005 0.50005 0 0 0 25.839844 6.7871094 L 25.96875 7.0117188 L 25.65625 7.1933594 L 25.527344 6.96875 A 0.50005 0.50005 0 0 0 24.949219 6.7402344 C 24.673774 6.8242344 24.385379 6.8613094 24.097656 6.8496094 A 0.50005 0.50005 0 0 0 23.595703 7.2207031 L 23.527344 7.4746094 L 23.177734 7.3808594 L 23.246094 7.1289062 A 0.50005 0.50005 0 0 0 22.996094 6.5566406 C 22.741486 6.4220406 22.512363 6.2462562 22.316406 6.0351562 A 0.50005 0.50005 0 0 0 21.699219 5.9414062 L 21.474609 6.0703125 L 21.294922 5.7578125 L 21.517578 5.6289062 A 0.50005 0.50005 0 0 0 21.746094 5.0507812 C 21.662084 4.7750813 21.625021 4.4873187 21.636719 4.1992188 A 0.50005 0.50005 0 0 0 21.267578 3.6953125 L 21.013672 3.6269531 L 21.107422 3.2792969 L 21.359375 3.34375 A 0.50005 0.50005 0 0 0 21.929688 3.0976562 C 22.064186 2.8428562 22.242108 2.6101625 22.453125 2.4140625 A 0.50005 0.50005 0 0 0 22.544922 1.7988281 L 22.416016 1.5722656 L 22.726562 1.3945312 L 22.855469 1.6152344 A 0.50005 0.50005 0 0 0 23.435547 1.84375 C 23.710995 1.75975 23.99744 1.7246281 24.285156 1.7363281 A 0.50005 0.50005 0 0 0 24.789062 1.3652344 L 24.857422 1.1132812 z M 24.283203 2.7558594 C 23.57094 2.7143775 22.896367 3.1806187 22.705078 3.8945312 C 22.486684 4.7103313 22.977087 5.56255 23.792969 5.78125 C 24.608689 6.00005 25.461022 5.5074063 25.679688 4.6914062 C 25.89808 3.8755062 25.405561 3.0253406 24.589844 2.8066406 C 24.487872 2.7792906 24.384955 2.7617854 24.283203 2.7558594 z M 24.117188 3.7578125 C 24.186711 3.7480906 24.260071 3.7521844 24.332031 3.7714844 C 24.620088 3.8484844 24.790086 4.1451938 24.712891 4.4335938 C 24.635601 4.7219937 24.340428 4.8916531 24.052734 4.8144531 C 23.764816 4.7374531 23.592726 4.4426969 23.669922 4.1542969 C 23.727919 3.9378469 23.908616 3.7869781 24.117188 3.7578125 z M 16.785156 5.3671875 C 16.27225 5.3643375 15.769036 5.3973563 15.277344 5.4726562 L 15.277344 5.4746094 C 14.295387 5.6271094 13.357277 5.9460375 12.464844 6.4609375 C 12.463544 6.4616375 12.462237 6.4609375 12.460938 6.4609375 C 9.8884002 7.8063375 7.9778938 10.309219 7.4667969 13.386719 L 4.0527344 20.173828 A 0.50005 0.50005 0 0 0 4.5 20.900391 L 5.8085938 20.900391 L 5.8085938 25.589844 A 0.50005 0.50005 0 0 0 6.3085938 26.089844 L 10.003906 26.089844 L 10.595703 31.546875 A 0.50005 0.50005 0 1 0 11.589844 31.439453 L 10.949219 25.535156 A 0.50005 0.50005 0 0 0 10.451172 25.089844 L 6.8085938 25.089844 L 6.8085938 20.400391 A 0.50005 0.50005 0 0 0 6.3085938 19.900391 L 5.3125 19.900391 L 8.3730469 13.8125 A 0.50005 0.50005 0 0 0 8.4199219 13.664062 C 8.8505158 10.838262 10.595757 8.5594438 12.941406 7.3398438 A 0.50005 0.50005 0 0 0 12.960938 7.3261719 C 14.534007 6.4173719 16.23871 6.1984562 18.216797 6.4726562 C 18.471468 6.5116562 18.722657 6.5596406 18.96875 6.6191406 A 0.50005 0.50005 0 1 0 19.203125 5.6484375 C 18.927174 5.5814375 18.646285 5.5257219 18.359375 5.4824219 A 0.50005 0.50005 0 0 0 18.353516 5.4824219 C 17.820659 5.4085219 17.298062 5.3700375 16.785156 5.3671875 z M 16.746094 7.5859375 A 0.50005 0.50005 0 0 0 16.246094 8.0859375 L 16.246094 8.7109375 C 16.052769 8.7749375 15.866017 8.8510063 15.683594 8.9414062 L 15.244141 8.5019531 A 0.50005 0.50005 0 0 0 14.537109 8.5019531 L 13.333984 9.7050781 A 0.50005 0.50005 0 0 0 13.333984 10.412109 L 13.775391 10.853516 C 13.684761 11.035216 13.607243 11.221462 13.542969 11.414062 L 12.917969 11.414062 A 0.50005 0.50005 0 0 0 12.417969 11.914062 L 12.417969 13.617188 A 0.50005 0.50005 0 0 0 12.917969 14.117188 L 13.542969 14.117188 C 13.606789 14.310387 13.683112 14.497388 13.773438 14.679688 L 13.333984 15.119141 A 0.50005 0.50005 0 0 0 13.333984 15.826172 L 14.537109 17.029297 A 0.50005 0.50005 0 0 0 15.244141 17.029297 L 15.683594 16.587891 C 15.865965 16.678891 16.052719 16.757766 16.246094 16.822266 L 16.246094 17.445312 A 0.50005 0.50005 0 0 0 16.746094 17.945312 L 18.445312 17.945312 A 0.50005 0.50005 0 0 0 18.945312 17.445312 L 18.945312 16.820312 C 19.138638 16.756312 19.325389 16.680244 19.507812 16.589844 L 19.947266 17.029297 A 0.50005 0.50005 0 0 0 20.654297 17.029297 L 21.857422 15.826172 A 0.50005 0.50005 0 0 0 21.857422 15.119141 L 21.416016 14.677734 C 21.506736 14.495734 21.58414 14.310088 21.648438 14.117188 L 22.273438 14.117188 A 0.50005 0.50005 0 0 0 22.773438 13.617188 L 22.773438 11.914062 A 0.50005 0.50005 0 0 0 22.273438 11.414062 L 21.648438 11.414062 C 21.584657 11.220863 21.508229 11.033862 21.417969 10.851562 L 21.857422 10.412109 A 0.50005 0.50005 0 0 0 21.857422 9.7050781 L 20.654297 8.5019531 A 0.50005 0.50005 0 0 0 19.947266 8.5019531 L 19.507812 8.9433594 C 19.325443 8.8523594 19.138688 8.7734844 18.945312 8.7089844 L 18.945312 8.0859375 A 0.50005 0.50005 0 0 0 18.445312 7.5859375 L 16.746094 7.5859375 z M 17.246094 8.5859375 L 17.945312 8.5859375 L 17.945312 9.0371094 A 0.50005 0.50005 0 0 0 18.333984 9.5234375 C 18.698623 9.6064375 19.048463 9.7503187 19.365234 9.9492188 A 0.50005 0.50005 0 0 0 19.984375 9.8808594 L 20.300781 9.5625 L 20.796875 10.058594 L 20.480469 10.375 A 0.50005 0.50005 0 0 0 20.410156 10.992188 C 20.608145 11.309888 20.751931 11.660091 20.833984 12.025391 A 0.50005 0.50005 0 0 0 21.320312 12.414062 L 21.773438 12.414062 L 21.773438 13.117188 L 21.322266 13.117188 A 0.50005 0.50005 0 0 0 20.835938 13.505859 C 20.752827 13.870859 20.607078 14.218156 20.408203 14.535156 A 0.50005 0.50005 0 0 0 20.478516 15.154297 L 20.796875 15.472656 L 20.300781 15.96875 L 19.986328 15.652344 A 0.50005 0.50005 0 0 0 19.367188 15.582031 C 19.049775 15.780131 18.700906 15.923759 18.335938 16.005859 A 0.50005 0.50005 0 0 0 17.945312 16.494141 L 17.945312 16.945312 L 17.246094 16.945312 L 17.246094 16.494141 A 0.50005 0.50005 0 0 0 16.857422 16.007812 C 16.492782 15.924812 16.142944 15.780931 15.826172 15.582031 A 0.50005 0.50005 0 0 0 15.207031 15.650391 L 14.890625 15.96875 L 14.394531 15.472656 L 14.710938 15.15625 A 0.50005 0.50005 0 0 0 14.78125 14.539062 C 14.583272 14.221462 14.439482 13.873113 14.357422 13.507812 A 0.50005 0.50005 0 0 0 13.871094 13.117188 L 13.417969 13.117188 L 13.417969 12.414062 L 13.869141 12.414062 A 0.50005 0.50005 0 0 0 14.355469 12.025391 C 14.438579 11.660391 14.584327 11.313094 14.783203 10.996094 A 0.50005 0.50005 0 0 0 14.712891 10.376953 L 14.394531 10.058594 L 14.890625 9.5625 L 15.205078 9.8789062 A 0.50005 0.50005 0 0 0 15.824219 9.9492188 C 16.141629 9.7511187 16.490501 9.6074906 16.855469 9.5253906 A 0.50005 0.50005 0 0 0 17.246094 9.0371094 L 17.246094 8.5859375 z M 24.234375 9.0820312 A 0.50005 0.50005 0 0 0 23.859375 9.8828125 C 25.102687 11.578213 25.722481 13.723903 25.451172 15.970703 C 25.444072 16.029703 25.432308 16.113928 25.423828 16.173828 L 21.304688 25.179688 A 0.50005 0.50005 0 0 0 21.261719 25.431641 L 21.787109 31.521484 A 0.50005 0.50005 0 1 0 22.783203 31.435547 L 22.269531 25.476562 L 26.363281 16.523438 A 0.50005 0.50005 0 0 0 26.404297 16.388672 C 26.404297 16.388672 26.430009 16.200144 26.443359 16.089844 C 26.745552 13.587244 26.054108 11.181963 24.666016 9.2890625 A 0.50005 0.50005 0 0 0 24.234375 9.0820312 z M 17.486328 10.96875 C 17.367324 10.975639 17.248121 10.995369 17.128906 11.027344 C 16.175129 11.282944 15.602007 12.278522 15.857422 13.232422 C 16.112856 14.186222 17.106893 14.759606 18.060547 14.503906 C 19.014358 14.248306 19.589465 13.254881 19.333984 12.300781 C 19.110446 11.466031 18.319358 10.920524 17.486328 10.96875 z M 17.705078 11.970703 C 18.013428 12.01403 18.281562 12.238869 18.367188 12.558594 C 18.481354 12.984994 18.228602 13.424863 17.802734 13.539062 C 17.37689 13.653163 16.938435 13.399156 16.824219 12.972656 C 16.709994 12.546056 16.962771 12.106387 17.388672 11.992188 C 17.495162 11.963638 17.602295 11.956261 17.705078 11.970703 z " color="#000" font-family="sans-serif" font-weight="400" overflow="visible" white-space="normal" style="line-height:normal;text-indent:0;text-align:start;text-decoration-line:none;text-decoration-style:solid;text-decoration-color:#000;text-transform:none;block-progression:tb;isolation:auto;mix-blend-mode:normal"/></svg>