<svg xmlns="http://www.w3.org/2000/svg" viewBox="0 0 350 175"><defs><style>.cls-1,.cls-10,.cls-11,.cls-12,.cls-13,.cls-14,.cls-15,.cls-2,.cls-3,.cls-4,.cls-5,.cls-6,.cls-7,.cls-9{fill:none;}.cls-1{stroke:#f9f9f9;stroke-width:35px;}.cls-1,.cls-10,.cls-11,.cls-12,.cls-13,.cls-14,.cls-15,.cls-2,.cls-3,.cls-4,.cls-5,.cls-6,.cls-7,.cls-8,.cls-9{stroke-linecap:round;}.cls-1,.cls-10,.cls-11,.cls-12,.cls-14,.cls-15,.cls-3,.cls-4,.cls-5,.cls-6,.cls-7,.cls-8,.cls-9{stroke-linejoin:round;}.cls-13,.cls-14,.cls-2{stroke:#fcb729;}.cls-13,.cls-2{stroke-miterlimit:10;}.cls-2{stroke-width:10px;}.cls-3,.cls-5{stroke:#fff;}.cls-3,.cls-4{stroke-width:5px;}.cls-10,.cls-4,.cls-9{stroke:#e6e6e6;}.cls-5,.cls-6,.cls-7,.cls-8{stroke-width:1.5px;}.cls-6{stroke:gray;}.cls-7,.cls-8{stroke:#5a585a;}.cls-8{fill:#fff;}.cls-12,.cls-9{stroke-width:6px;}.cls-10{stroke-width:9px;}.cls-11,.cls-12,.cls-15{stroke:#f2f2f2;}.cls-11{stroke-width:12px;}.cls-13{stroke-width:14px;}.cls-14{stroke-width:8px;}.cls-15{stroke-width:3px;}</style></defs><title>About Page</title><g id="Layer_4" data-name="Layer 4"><path class="cls-1" d="M20.71,39.5A105.79,105.79,0,0,1,53.18,22.92c2.78-.86,6.07-1.55,8.45,0,4.27,2.81,1.3,9-1.93,12.79L24.48,77.28c-1.81,2.14-3.68,4.38-4.3,7s.38,5.84,3,7c3.57,1.54,7.49-1.18,10.37-3.66a354,354,0,0,1,77-50.34l-84.15,88c11.28,0,21.16-6.57,30.1-12.91C101.87,80.29,146.89,47.07,198,23.49,145.39,60.4,92.07,97.94,52.16,146.55l104.76-62.6c34-20.3,68-40.64,104.12-57.53-54.67,39.7-109.78,79.8-154.36,129.09Q196,93.6,289.67,37.41L167.55,141.74c39.89-12,68.78-46.09,109.09-56.86l-43.87,55.36c22-15.25,44.81-30.86,71.51-37.07L262.89,156l32-21.58c3.5-2.36,7.59-4.84,11.83-4s6.43,7.2,2.43,8.75c7.17-5.57,13.62-8.47,20.79-14"/></g><g id="Butter_Color" data-name="Butter Color"><path class="cls-2" d="M241.72,60.14l35.26,0c1.79,0,3.69,0,5.2,1,1.8,1.13,2.63,3.27,3.35,5.27l2.68,7.42a5.33,5.33,0,0,1,.42,3.5,5.32,5.32,0,0,1-2,2.27l-10.35,7.77-.43-19.23a5.61,5.61,0,0,1,.27-2.29,1.91,1.91,0,0,1,1.77-1.27c1.17.09,1.71,1.48,2,2.63.74,3.18,1.48,6.47.82,9.67-1,4.64-4.8,8.29-9.17,10.14s-9.22,2.13-14,2.13-9.52-.29-14.19.49a50.66,50.66,0,0,0-1.73-16.82c-.6-2.16-1.3-4.65,0-6.51a5.76,5.76,0,0,1,2.35-1.82c5.91-2.84,12.9-1.22,19.24.44a12.87,12.87,0,0,1,4.71,1.94c2.69,2.07,3.29,5.81,3.69,9.18a3.42,3.42,0,0,1-.48,2.79,3.38,3.38,0,0,1-1.69.79l-13.64,3.48a4.78,4.78,0,0,1-6.6-2.66L246.34,76a3.52,3.52,0,0,1-.79-2.47c.23-1.12,1.43-1.71,2.49-2.13,3.07-1.24,6.27-2.49,9.57-2.29s6.74,2.32,7.32,5.58a2.75,2.75,0,0,1-1,2.9c-1.08.63-2.42,0-3.65-.28A7.4,7.4,0,0,0,254,79.49a21.86,21.86,0,0,0-3.92,5.72c-.49.91-1,2-.5,2.92a3,3,0,0,0,1.9,1.24,34,34,0,0,0,18.75,0,64.63,64.63,0,0,0,17.21-7.87c1.53-.95,3.23-2.24,3.21-4a5.41,5.41,0,0,0-.7-2.23l-3.71-7.7a8.71,8.71,0,0,0-2.27-3.28A7.06,7.06,0,0,0,280.32,63c-3.49-.37-7.29.4-9.74,2.9s-3,7-.51,9.48l-18.29-.27"/><path class="cls-3" d="M243.3,96.25c10.1-.34,21.57,5.82,30.08.37,6.24-4,14.36-10,23.14-14.22"/><path class="cls-4" d="M296.18,70.67c1-.07.18-.13,1.19.12a3,3,0,0,1,2,4.69,10,10,0,0,1-1.91,2.22,12.85,12.85,0,0,0-1.16-3.79"/></g><g id="Butter"><path class="cls-5" d="M295.72,79.74c-1.52-7.56-4.68-13.88-7.3-20.74-1.23-3.22-3.65-4.26-7.17-3.9-4.46.45-8.92-.08-13.4.2a240,240,0,0,1-25.41.35"/><path class="cls-5" d="M284.85,57.39A128.36,128.36,0,0,0,272.19,63c-2.75,1.39-1.19,6.14-.62,8.13,2.07,7.28,4,14,5.39,21.47"/><path class="cls-5" d="M240.75,65.76c14,.19,12.8-.19,26.84,0"/><path class="cls-6" d="M242.72,93.75c10.76.19,19.42.38,30.18.57"/><path class="cls-6" d="M294.14,69c5.26,0,8.4.83,9.15,1.86a3.54,3.54,0,0,1,.06,3.62,10.42,10.42,0,0,1-2.48,2.86c-5.27,4.75-20.49,12.06-26.63,17a2,2,0,0,0-.55,2.32c.81,1.89,1.49,3.93,1.49,3.93a237.76,237.76,0,0,0,20.62-12.62c3.28-2.5,5.45-8.74,6.75-12.65"/><path class="cls-6" d="M237.5,99.52c11.89.06,24.11.92,36,1"/><path class="cls-7" d="M169.13,153.63a11.53,11.53,0,0,1,3.64.72l.23.13c1.29.84.78,2.48-.8,2.85-4.49,1-14.07,3.23-16.79,3.48-12.5,1.12-21.15,1.07-33.6-1-8-1.34-2-3.24-26-5.21-17.25-2.59-46.26-3.9-46.26-3.9s-2.69-1.25-3-2.24.46-1.8,1.48-2.21a9.44,9.44,0,0,1,3.38-.44c16.7-.13,67.66,4.44,67.66,4.44S159.87,152.81,169.13,153.63Z"/><path class="cls-7" d="M110.49,150.63c-1.15,1.51-2.88,2.32-3.75,5.27"/></g><g id="Bread_Color" data-name="Bread Color"><path class="cls-8" d="M238,119.19c3.14-5.45,1.75-12.91,1-18.8-.79-6.18-1.16-12.4-2-18.58-.71-5,2.74-9.88,3.75-14.67,2.56-12.13-.24-38.22-14.64-42.7C211.82,20,175.8,20.27,175.8,20.27S95.25,18.4,56,26.25A32.2,32.2,0,0,0,32.44,45.59C22.46,70,34.5,81,35.78,87.36c1.38,19.33,1.41,37.68.84,43.16a8,8,0,0,0,2.56,6.88c1.67,1.45,5.74,1.94,9,2.05,59.71,2,73.72,3,130.78,3"/><path class="cls-8" d="M195.29,135.35l1.06,7.64c0,1.39,2.08,2.55,3.47,2.67,18.77,1.63,38.13.26,56.66,4,9.21,1.85,18.47,4.36,27.9,4.71,10.51.39,21.18-2.12,30.8-6.25,8.27-3.55,9.55-11.92,8.42-20.46"/><path class="cls-8" d="M301.73,113.22c7-1,15.24,2.89,19.25,8.71,3.47,5,4.3,8,.63,13.15s-10.93,7.11-16.91,8.44c-7.71,1.72-15.41,3-23.34,2.28s-15-4.2-22.72-5.27a192.34,192.34,0,0,0-21.86-1.37c-12.32-.27-24.65-.41-36.92-1.5a6.32,6.32,0,0,1-2.67-.64,2.37,2.37,0,0,1-.06-4.11c14-8,29.2-13.09,44.41-18.44,8.8-3.1,17.38-1.25,26.55-1C279.3,113.7,291.56,114.63,301.73,113.22Z"/><path class="cls-9" d="M197.37,53.76a29,29,0,0,0-7.43,12.17,5.8,5.8,0,0,0-.12,4.14c.84,1.77,3.07,2.38,5,2.32,3.08-.09,6-1.3,9-1.77s6.59,0,8.4,2.52c1.41,2,1.36,4.57,1.17,7a111.43,111.43,0,0,1-4.75,24.68"/><path class="cls-10" d="M200.07,140.91c18.2.57,36.37,1.46,54.33,4.48,11.71,2,23.48,5.38,35.34,4.74s20.89.8,28.34-8.45"/><path class="cls-10" d="M59.57,27.73c-8.88,1-16.35,7.89-19.89,16.09s-7.28,15.7-5.9,24.53,5.05,19.19,7.08,27.89c2.65,11.39,1.08,26.46,1.16,38.16"/><path class="cls-11" d="M85.21,27.3c-9.58,4.26-13.13,8.11-18.13,17.33S59.32,64.74,61,75.09c.91,5.66,1.91,11.11,3.24,16.69,3.46,14.52,2.91,29.65,2.34,44.57"/><path class="cls-11" d="M119.48,24.07A53,53,0,0,0,97.63,40.92,42.59,42.59,0,0,0,89,67c.14,6.12,1.74,12.1,2.89,18.11,3.23,16.94,2.91,34.34,2.58,51.58"/><path class="cls-11" d="M169.57,24.49a35,35,0,0,0-13,5.14,51.26,51.26,0,0,0-22,58.29c1.67,5.56,4.28,10.82,5.61,16.47,1.63,6.92,1.28,14.14.93,21.24a26.19,26.19,0,0,1-1.41,8.6c-1.1,2.71-3.33,5.13-6.21,5.65-3.61.65-7.18-1.92-8.89-5.17s-2-7-2.19-10.7l-2.77-44.92c-.39-6.27-.77-12.62.42-18.79,1.9-9.91,7.86-18.8,15.69-25.16s17.46-10.28,27.35-12.25c-10.14,7.39-18.54,18.41-24.69,29.34C132.07,63.38,126,75.33,126,88.15c0,14.75,8.12,29.21,5.12,43.65"/><path class="cls-11" d="M216.49,24.6c-12.24.76-29.32,2.91-39.12,10.28S154.71,56,159,67.44c.24.64.5,4.93.76,5.57,3.75,9.09,9.88,13.55,12.81,23.83,4,14,3.79,28.73,2,42.91-2.63.78-5.61-2.22-6.81-4.68s-1.22-5.32-1.31-8.06a118.62,118.62,0,0,0-5-30.3"/><path class="cls-12" d="M244.47,129.85a41.49,41.49,0,0,1,28.34,3.78,27.84,27.84,0,0,0,6.19,2.87c4.35,1.07,8.84-.73,13-2.51"/><path class="cls-10" d="M41.87,91.56q64,2.67,128.16,3.2"/><path class="cls-13" d="M251.24,126.39c12.15-2,22.23-3.49,34.89-3.33,4,.05,14.38-1.85,16.62,0,1.9,1.56-.08,8.91-2.37,10.29s-7.47.7-10.86.78a77.12,77.12,0,0,1-10.08-.69c-14.23-1.54-27.88-3.92-42.38-4.05-2.05,0-11.25,1.88-11.87.79-.44-.76,6.26-2.17,7.5-2.59a16.26,16.26,0,0,1,4.17-.58q10.79-.57,21.62-.88a35.63,35.63,0,0,1,8.37,1.18c6.4,1.51,19.58,1.64,26.42.49.57-1.06-2.48,1.51-2.3,2.7s3.15,2.79,2.3,3.63c-3.46,3.46-9.89,3-14.25.79-3.87-2-4.49-6-7.12-9.5-2.85-3.73-11.94-2.86-16.62-3.17s-11.72.64-15,4"/><path class="cls-14" d="M223.59,128.6c-2.94,1-8,2.05-10,4.45l13.66-.39"/><path class="cls-15" d="M112.44,152.14l55.68,3.69"/><path class="cls-15" d="M48.5,148a542.59,542.59,0,0,1,58.26,3.46"/></g><g id="Bread"><path class="cls-7" d="M239,100.39c-.79-6.18-1.16-12.4-2-18.58-.71-5,2.74-9.88,3.75-14.67,2.56-12.13-.24-38.22-14.64-42.7C211.82,20,175.8,20.27,175.8,20.27S95.25,18.4,56,26.25A32.2,32.2,0,0,0,32.44,45.59C22.46,70,34.5,81,35.78,87.36c1.38,19.33,1.41,37.68.84,43.16a8,8,0,0,0,2.56,6.88c1.67,1.45,5.74,1.94,9,2.05,59.71,2,73.72,3,130.78,3"/><path class="cls-7" d="M230,26.38c-23.5.3-47.34,2-59.66,25.79-5.69,11-3.83,27,5.61,35.27,6,11,5,34,5,53,0,4.45,8.08,1.83,14.11-.62"/><path class="cls-6" d="M42.11,86.94C73.71,88.38,135.35,90,167,91.44"/><path class="cls-6" d="M189.84,23.25c-14.89,2.37-31,6.38-41.95,17.52C135.4,53.53,133,75.28,143,90.18"/><path class="cls-6" d="M145.41,95.59l2.42,40.05"/><path class="cls-6" d="M128.91,95.28q.06,23.23,2.37,46.39"/><path class="cls-6" d="M126.77,88.93a49.1,49.1,0,0,1,6.17-45.75,49.1,49.1,0,0,1,41.8-19.58"/><path class="cls-6" d="M153.82,22.82a46.82,46.82,0,0,0-37.14,21.92,46.82,46.82,0,0,0-2.66,43"/><path class="cls-6" d="M115.19,96.94a410.21,410.21,0,0,1,.79,43.38"/><path class="cls-6" d="M130.66,22.53A48.9,48.9,0,0,0,97.51,85.68"/><path class="cls-6" d="M100.25,93.28l.72,45"/><path class="cls-6" d="M112.54,23.18C99.33,25.77,88.91,37,84.65,49.77s-2.18,24.64,1.23,37.67"/><path class="cls-6" d="M86.41,93.95q-.31,19,.67,38"/><path class="cls-6" d="M94.39,23.55h-.33A51.66,51.66,0,0,0,71,86.08"/><path class="cls-6" d="M72.84,94.61l.26,34"/><path class="cls-6" d="M83.62,24A49.41,49.41,0,0,0,56.9,85.2c5.25,15.32,2.85,32.92,2.39,49.11"/><path class="cls-6" d="M69.17,26A43.43,43.43,0,0,0,44.84,87.2c.87,14.36,1.22,36.46.49,47.28"/><path class="cls-6" d="M206.27,24.25c-10.93.93-21.81,3.95-31.05,9.85C159,44.5,142.93,63.42,158.95,87.44"/><path class="cls-6" d="M160,92.94a340,340,0,0,0,1.5,45"/><path class="cls-7" d="M195.29,135.35l1.06,7.64c0,1.39,2.08,2.55,3.47,2.67,18.77,1.63,38.13.26,56.66,4,9.21,1.85,18.47,4.36,27.9,4.71,10.51.39,21.18-2.12,30.8-6.25,8.27-3.55,9.55-11.92,8.42-20.46"/><path class="cls-7" d="M301.73,113.22c7-1,15.24,2.89,19.25,8.71,3.47,5,4.3,8,.63,13.15s-10.93,7.11-16.91,8.44c-7.71,1.72-15.41,3-23.34,2.28s-15-4.2-22.72-5.27a192.34,192.34,0,0,0-21.86-1.37c-12.32-.27-24.65-.41-36.92-1.5a6.32,6.32,0,0,1-2.67-.64,2.37,2.37,0,0,1-.06-4.11c14-8,29.2-13.09,44.41-18.44,8.8-3.1,17.38-1.25,26.55-1C279.3,113.7,291.56,114.63,301.73,113.22Z"/></g></svg>